<?xml version="1.0" encoding="iso-8859-1"?>
<!-- Generator: Adobe Illustrator 19.0.0, SVG Export Plug-In . SVG Version: 6.00 Build 0)  -->
<svg version="1.1" id="Capa_1" xmlns="http://www.w3.org/2000/svg" xmlns:xlink="http://www.w3.org/1999/xlink" x="0px" y="0px"
	 viewBox="0 0 512 512" style="enable-background:new 0 0 512 512;" xml:space="preserve">
<path style="fill:#E9F6FF;" d="M405.852,235.438H106.148V83.325c0-27.255,22.095-49.35,49.35-49.35h201.004
	c27.255,0,49.35,22.095,49.35,49.35v152.113H405.852z"/>
<path style="fill:#CAE7FC;" d="M405.852,171.075c0,0-222.126,65.75-228.929-137.101h-21.426c-27.255,0-49.35,22.095-49.35,49.35
	v152.113h299.704V171.075z"/>
<g>
	<path style="fill:#57565C;" d="M339.091,162.985c-4.268,0-7.726-3.459-7.726-7.726v-12.827c0-4.267,3.458-7.726,7.726-7.726
		c4.268,0,7.726,3.459,7.726,7.726v12.827C346.818,159.526,343.358,162.985,339.091,162.985z"/>
	<path style="fill:#57565C;" d="M172.909,162.985c-4.268,0-7.726-3.459-7.726-7.726v-12.827c0-4.267,3.458-7.726,7.726-7.726
		c4.268,0,7.726,3.459,7.726,7.726v12.827C180.635,159.526,177.177,162.985,172.909,162.985z"/>
	<path style="fill:#57565C;" d="M256,171.075c-10,0-20-3.236-28.344-9.708c-3.372-2.616-3.985-7.469-1.369-10.841
		c2.614-3.373,7.469-3.986,10.84-1.37c11.113,8.62,26.634,8.62,37.747,0c3.37-2.616,8.225-2.003,10.84,1.37
		c2.616,3.372,2.003,8.225-1.369,10.841C276,167.84,266,171.075,256,171.075z"/>
</g>
<path style="fill:#787680;" d="M469.723,478.025H42.277C18.928,478.025,0,459.097,0,435.749V325.362
	c0-58.623,47.524-106.148,106.148-106.148h299.704c58.623,0,106.148,47.523,106.148,106.148v110.387
	C512,459.097,493.072,478.025,469.723,478.025z"/>
<rect x="106.15" y="219.212" style="fill:#3E3D42;" width="299.7" height="258.812"/>
<path style="fill:#2D2D30;" d="M205.784,435.746V261.492c0-23.35,18.929-42.279,42.279-42.279H106.148v258.811h141.915
	C224.712,478.025,205.784,459.096,205.784,435.746z"/>
<rect x="106.15" y="219.212" style="fill:#57565C;" width="299.7" height="125.136"/>
<path style="fill:#3E3D42;" d="M248.062,219.214H106.148v125.135h99.636v-82.856C205.784,238.142,224.712,219.214,248.062,219.214z"
	/>
<circle style="fill:#FFDA8F;" cx="339.167" cy="281.785" r="19.573"/>
<path style="fill:#FFB655;" d="M259.775,301.356h-90.64c-10.766,0-19.576-8.809-19.576-19.576l0,0
	c0-10.766,8.809-19.576,19.576-19.576h90.64c10.766,0,19.576,8.809,19.576,19.576l0,0
	C279.35,292.547,270.541,301.356,259.775,301.356z"/>
<path style="fill:#EF943A;" d="M205.784,262.205h-36.65c-10.766,0-19.576,8.809-19.576,19.576s8.809,19.576,19.576,19.576h36.65
	V262.205z"/>
<path style="fill:#787680;" d="M376.051,478.025H135.949v-19.619c0-19.741,16.004-35.745,35.745-35.745h168.613
	c19.741,0,35.745,16.004,35.745,35.745v19.619H376.051z"/>
<path style="fill:#57565C;" d="M228.118,422.661h-56.425c-19.741,0-35.745,16.004-35.745,35.745v19.619h56.425v-19.619
	C192.373,438.665,208.377,422.661,228.118,422.661z"/>
<g>
</g>
<g>
</g>
<g>
</g>
<g>
</g>
<g>
</g>
<g>
</g>
<g>
</g>
<g>
</g>
<g>
</g>
<g>
</g>
<g>
</g>
<g>
</g>
<g>
</g>
<g>
</g>
<g>
</g>
</svg>
