<?xml version="1.0"?>
<svg width="500" height="499.988" xmlns="http://www.w3.org/2000/svg" stroke="null" style="vector-effect: non-scaling-stroke;">

 <g stroke="null">
  <title stroke="null">background</title>
  <rect stroke="null" fill="none" id="canvas_background" height="402" width="582" y="-1" x="-1"/>
 </g>
 <g stroke="null">
  <title stroke="null">Layer 1</title>
  <path stroke="null" id="svg_5" fill="#FFFFFF" d="m323.908997,289.444c0,7.019012 -5.667999,12.699005 -12.684998,12.699005l-123.459991,0c-7.017014,0 -12.695007,-5.679993 -12.695007,-12.699005l0,-150.931c0,-7.014008 5.677994,-12.704002 12.695007,-12.704002l123.459991,0c7.016998,0 12.684998,5.689995 12.684998,12.704002l0,150.931z"/>
  <path stroke="null" id="svg_6" fill="#FFFFFF" d="m187.764008,129.591995c-4.914001,0 -8.92099,4.001999 -8.92099,8.92099l0,150.931015c0,4.918976 4.006989,8.92099 8.92099,8.92099l123.459991,0c4.899017,0 8.906006,-4.002014 8.906006,-8.92099l0,-150.931c0,-4.919006 -4.006989,-8.921005 -8.906006,-8.921005l-123.459991,0l0,0z"/>
  <rect stroke="null" id="svg_8" fill="#E0E2E4" y="150.723" x="189.801" width="120.4" height="5.341"/>
  <rect stroke="null" id="svg_9" fill="#E0E2E4" y="170.311" x="189.801" width="120.4" height="5.336"/>
  <rect stroke="null" id="svg_10" fill="#E0E2E4" y="189.894" x="189.801" width="120.4" height="5.34"/>
  <rect stroke="null" id="svg_11" fill="#E0E2E4" y="209.482" x="189.801" width="120.4" height="5.336"/>
  <rect stroke="null" id="svg_12" fill="#E0E2E4" y="229.065" x="189.801" width="120.4" height="5.346"/>
  <rect stroke="null" id="svg_13" fill="#E0E2E4" y="248.648" x="189.801" width="120.4" height="5.336"/>
  <path stroke="null" id="svg_14" fill="#E0E2E4" d="m183.462997,221.341995c-5.194992,0 -9.44899,1.421005 -9.44899,3.178009l0,53.766983c0,1.751007 4.253998,3.177002 9.44899,3.177002l130.848007,0c5.197998,0 9.442017,-1.425995 9.442017,-3.177002l0,-53.766983c0,-1.755997 -4.245026,-3.178009 -9.442017,-3.178009l-130.848007,0l0,0z"/>
  <path stroke="null" id="svg_16" fill="#848A93" d="m346.179993,354.494995l-192.367996,0c-3.856995,0 -6.975998,3.128998 -6.975998,6.975983c0,3.856018 3.119003,6.980011 6.975998,6.980011l6.527008,0c-0.01001,0.170013 -0.049011,0.325012 -0.049011,0.494995c0,2.891022 2.348007,5.229004 5.234009,5.229004l42.845993,0c2.896011,0 5.23201,-2.337982 5.23201,-5.229004c0,-0.169983 -0.034012,-0.324982 -0.044006,-0.494995l72.865982,0c-0.009979,0.170013 -0.040985,0.325012 -0.040985,0.494995c0,2.891022 2.333008,5.229004 5.229004,5.229004l42.846008,0c2.910004,0 5.238983,-2.337982 5.238983,-5.229004c0,-0.169983 -0.033997,-0.324982 -0.04599,-0.494995l6.529999,0c3.848999,0 6.97998,-3.123993 6.97998,-6.980011c-0.000977,-3.846985 -3.131989,-6.975983 -6.980988,-6.975983z"/>
  <path stroke="null" id="svg_17" fill="#FFFFFF" d="m351.546997,246.770004l-203.106995,0c-17.236008,0 -31.231003,13.664993 -31.231003,30.521988l0,40.71402c0,16.856995 13.994995,30.540985 31.231003,30.540985l203.106995,0c17.25,0 31.244995,-13.684998 31.244995,-30.540985l0,-40.71402c0,-16.856995 -13.994995,-30.521988 -31.244995,-30.521988z"/>
  <path stroke="null" id="svg_19" fill="#7DBEBD" d="m353.170013,297.152008c0,4.25 -3.45401,7.694 -7.696014,7.694c-4.254974,0 -7.695984,-3.444 -7.695984,-7.694c0,-4.248993 3.44101,-7.697998 7.695984,-7.697998c4.242004,-0.001007 7.696014,3.449005 7.696014,7.697998z"/>
  <path stroke="null" id="svg_21" fill="#F2955C" d="m319.565002,297.141998c0,4.259003 -3.442017,7.713013 -7.705994,7.713013c-4.240021,0 -7.686005,-3.45401 -7.686005,-7.713013c0,-4.244995 3.446991,-7.697998 7.686005,-7.697998c4.264984,0 7.705994,3.45401 7.705994,7.697998z"/>
 </g>
</svg>